<svg width="20" height="20" fill="none" xmlns="http://www.w3.org/2000/svg">
  <path d="M9.964 2.623l.556-.98a1.24 1.24 0 011.712-.47c.6.35.804 1.131.46 1.744l-5.363 9.458h3.879c1.257 0 1.962 1.505 1.415 2.548H1.251C.557 14.923 0 14.356 0 13.65c0-.707.557-1.274 1.25-1.274h3.19l4.08-7.207-1.274-2.255a1.29 1.29 0 01.46-1.743 1.241 1.241 0 011.712.47l.546.983zM5.14 16.236l-1.203 2.125a1.24 1.24 0 01-1.71.469 1.289 1.289 0 01-.461-1.743l.893-1.575c1.01-.32 1.832-.074 2.481.724zm10.356-3.854h3.253c.694 0 1.251.567 1.251 1.274 0 .707-.557 1.274-1.25 1.274h-1.808l1.22 2.157a1.29 1.29 0 01-.46 1.743c-.602.35-1.361.143-1.712-.47-2.054-3.63-3.597-6.345-4.62-8.155-1.049-1.841-.3-3.69.439-4.316.821 1.435 2.048 3.602 3.687 6.493z" fill="#000"/>
</svg>
