<svg width="20" height="20" viewBox="0 0 20 20" fill="none" xmlns="http://www.w3.org/2000/svg">
<path fill-rule="evenodd" clip-rule="evenodd" d="M13.4568 0.110412C13.826 0.299982 14.0398 0.697931 13.9939 1.11045L13.1173 9.00002H17C17.4141 9.00002 17.7853 9.25519 17.9337 9.64175C18.082 10.0283 17.9768 10.4663 17.669 10.7433L7.66901 19.7433C7.3605 20.021 6.91254 20.0792 6.54331 19.8896C6.17407 19.7001 5.96032 19.3021 6.00616 18.8896L6.88278 11H3.00004C2.58599 11 2.21476 10.7448 2.06642 10.3583C1.91808 9.97171 2.02331 9.53371 2.33108 9.25672L12.3311 0.256722C12.6396 -0.0209354 13.0875 -0.0791571 13.4568 0.110412ZM5.606 9.00002H8.00004C8.28448 9.00002 8.55547 9.12115 8.74517 9.33309C8.93487 9.54504 9.02534 9.82774 8.99393 10.1104L8.28408 16.499L14.3941 11H12C11.7156 11 11.4446 10.8789 11.2549 10.6669C11.0652 10.455 10.9747 10.1723 11.0062 9.88958L11.716 3.50102L5.606 9.00002Z" fill="black"/>
</svg>
