<svg width="20" height="13" fill="none" xmlns="http://www.w3.org/2000/svg"><path d="M10.1 0l.45.03c.89.06 1.32.2 1.76.44.58.3 1.03.76 1.34 1.34l.05.1.1.2c.11.28.2.6.25 1.05l3.78-1.26A1.65 1.65 0 0120 3.46V9.2a1.65 1.65 0 01-2.14 1.57l-3.79-1.18a3.67 3.67 0 01-.42 1.56 3.2 3.2 0 01-1.34 1.33c-.44.23-.87.39-1.76.44l-.44.02-.52.01H4.01l-.44-.03a3.88 3.88 0 01-1.76-.44 3.2 3.2 0 01-1.34-1.33l-.1-.2a4.1 4.1 0 01-.34-1.57L0 8.93v-.25L0 4.52v-.51l.03-.44c.06-.89.2-1.32.44-1.76A3.2 3.2 0 011.81.47C2.25.24 2.68.1 3.57.03L4 0h.25L9.59 0h.52zm-.3 2H3.95l-.3.02c-.32.02-.53.06-.7.12l-.13.06-.06.04c-.23.12-.4.28-.51.5l-.04.07-.06.14c-.06.16-.1.37-.12.68l-.01.3v5.08l.01.3c.03.45.1.67.22.88.12.23.28.4.5.52l.07.03.14.06.15.04c.11.03.24.05.4.07l.28.02h.33l.41.01h5.66l.16-.01.27-.02c.17-.02.3-.04.4-.07l.16-.04.2-.1c.23-.12.4-.28.51-.5l.07-.14c.05-.13.1-.29.12-.5l.03-.25.01-.3V4.52v-.74l-.01-.15-.03-.24a1.8 1.8 0 00-.12-.51l-.07-.13a1.2 1.2 0 00-.51-.51 1.97 1.97 0 00-.89-.22l-.3-.01h-.37zM18 3.95l-3.53 1.18v2.48L18 8.7V3.95z" fill="#000"/></svg>