<svg width="20" height="20" fill="none" xmlns="http://www.w3.org/2000/svg">
  <path d="M14.5 1a1 1 0 10-2 0c0 2.5-2 4.5-4.5 4.5a1 1 0 000 2c2.5 0 4.5 2 4.5 4.5a1 1 0 102 0c0-2.5 2-4.5 4.5-4.5a1 1 0 100-2c-2.5 0-4.5-2-4.5-4.5zM5.5 10a1 1 0 10-2 0c0 1.4-1.1 2.5-2.5 2.5a1 1 0 100 2c1.4 0 2.5 1.1 2.5 2.5a1 1 0 102 0c0-1.4 1.1-2.5 2.5-2.5a1 1 0 100-2A2.5 2.5 0 015.5 10zM18 15a1 1 0 10-2 0c0 .6-.4 1-1 1a1 1 0 100 2c.6 0 1 .4 1 1a1 1 0 102 0c0-.6.4-1 1-1a1 1 0 100-2 1 1 0 01-1-1z" fill="#000"/>
</svg>
