<svg width="20" height="20" fill="none" xmlns="http://www.w3.org/2000/svg">
  <path d="M8.78 1.26a2.94 2.94 0 012.44 0l8.19 3.72c.36.16.59.53.59.93s-.23.77-.6.94l-8.18 3.71c-.78.36-1.66.36-2.44 0L.6 6.85C.23 6.68 0 6.32 0 5.9c0-.4.23-.77.6-.93l8.18-3.72zM5.9 12.98c.51-.23.74-.84.51-1.35a1 1 0 00-1.32-.52L.6 13.15c-.36.17-.59.53-.59.94 0 .4.23.77.6.93l8.18 3.72c.78.35 1.66.35 2.44 0l8.19-3.72c.36-.16.59-.53.59-.93s-.23-.77-.6-.94l-4.5-2.04a1 1 0 00-1.31.52c-.23.51 0 1.12.5 1.35l2.45 1.1-6.13 2.79a.98.98 0 01-.82 0l-6.13-2.78 2.45-1.11z" fill="#000"/>
</svg>
