<svg width="20" height="20" fill="none" xmlns="http://www.w3.org/2000/svg"><path fill-rule="evenodd" clip-rule="evenodd" d="M10 6S8.9078 4.8635 8.5291 4.4525C7.9611 3.8361 6.904 3 5.3333 3 3.6334 3 2 4.5953 2 7.219c0 1.544.6858 5.539 8 9.5992 7.3143-4.0602 8-8.0551 8-9.5993C18 4.6376 16.4018 3 14.6667 3c-1.5706 0-2.6278.836-3.1959 1.4526C11.0922 4.8636 10 6 10 6Zm.3152 12.9219C18.7418 14.4672 20 9.6776 20 7.2189 20 3.9332 17.8679 1 14.6667 1c-1.6906 0-2.9684.6555-3.8384 1.3342A6.9144 6.9144 0 0 0 10 3.0974a6.9124 6.9124 0 0 0-.8281-.763C8.3019 1.6554 7.024 1 5.3333 1 2.1952 1 0 3.857 0 7.219c0 2.4585 1.2582 7.2482 9.6848 11.7029a.675.675 0 0 0 .6304 0Z" fill="#000"/></svg>