<svg width="20" height="20" fill="none" xmlns="http://www.w3.org/2000/svg">
  <path fill-rule="evenodd" clip-rule="evenodd" d="M3.326 10.7416c-1.6381 1.6381-1.6381 4.2942 0 5.9323 1.6382 1.6382 4.2943 1.6382 5.9324 0l2.2247-2.2246c.4095-.4095 1.0736-.4095 1.4831 0s.4095 1.0735 0 1.4831l-2.2246 2.2246c-2.4573 2.4573-6.4414 2.4573-8.8986 0-2.4573-2.4572-2.4573-6.4413 0-8.8986l2.2246-2.2246c.4096-.4095 1.0736-.4095 1.4831 0 .4096.4095.4096 1.0736 0 1.4831l-2.2246 2.2247zM14.4493 11.4831l2.2246-2.2247c1.6382-1.6381 1.6382-4.2942 0-5.9323-1.6381-1.6382-4.2942-1.6382-5.9323 0L8.5169 5.5507c-.4095.4096-1.0736.4096-1.4831 0-.4095-.4095-.4095-1.0736 0-1.483L9.2584 1.843c2.4573-2.4573 6.4414-2.4573 8.8986 0 2.4573 2.4572 2.4573 6.4413 0 8.8985l-2.2246 2.2247c-.4096.4095-1.0736.4095-1.4831 0-.4096-.4096-.4096-1.0736 0-1.4831z" fill="#000"/>
  <path d="M6.2923 13.7077c-.4096-.4095-.4096-1.0735 0-1.4831l5.9323-5.9323c.4096-.4096 1.0736-.4096 1.4831 0 .4096.4095.4096 1.0735 0 1.483l-5.9324 5.9324c-.4095.4096-1.0735.4096-1.483 0z" fill="#000"/>
</svg>
