<svg width="20" height="20" fill="none" xmlns="http://www.w3.org/2000/svg">
  <path fill-rule="evenodd" clip-rule="evenodd" d="M8.334 4.862a.694.694 0 101.39 0V.695a.694.694 0 10-1.39 0v4.167zm3.517 11.557L9.567 9.567l6.852 2.284-.91.911a.889.889 0 000 1.257l2.546 2.547-1.489 1.488-2.546-2.546a.889.889 0 00-1.258 0l-.91.911zM7.957 7.957a1.372 1.372 0 011.409-.33l8.235 2.744c.453.15.794.525.903.987v.002c.11.463-.029.95-.366 1.287l-.744.744 2.203 2.203a1.374 1.374 0 010 1.944l-2.059 2.059a1.374 1.374 0 01-1.943 0l-2.204-2.203-.744.744a1.377 1.377 0 01-1.284.367l-.005-.001a1.374 1.374 0 01-.987-.903L7.625 9.363a1.374 1.374 0 01.332-1.407zM5.591 6.574L2.644 3.627a.694.694 0 11.982-.982l2.947 2.947a.694.694 0 11-.982.982zM2.644 14.43a.694.694 0 10.982.982l2.947-2.947a.694.694 0 10-.982-.982L2.644 14.43zm8.84-7.857a.694.694 0 010-.982l2.947-2.947a.694.694 0 11.982.982l-2.947 2.947a.694.694 0 01-.982 0zM.694 9.724h4.168a.694.694 0 100-1.39H.695a.694.694 0 100 1.39z" fill="#000"/>
</svg>
