<svg width="20" height="20" fill="none" xmlns="http://www.w3.org/2000/svg">
  <path fill-rule="evenodd" clip-rule="evenodd" d="M10.315 12.427a4.472 4.472 0 01-4.47-4.466V4.466A4.468 4.468 0 0110.315 0c2.468 0 4.47 2 4.47 4.466v3.495a4.472 4.472 0 01-4.47 4.466zm0-10.485a2.53 2.53 0 00-2.527 2.524v3.495a2.525 2.525 0 002.527 2.525A2.525 2.525 0 0012.84 7.96V4.466a2.53 2.53 0 00-2.526-2.524zM10.35 20a.97.97 0 01-.971-.97v-2.774A8.361 8.361 0 012 7.961v-1.36a.97.97 0 111.942 0v1.36a6.416 6.416 0 006.408 6.408c.048 0 .095.003.142.01a.976.976 0 01.141-.01 6.416 6.416 0 006.408-6.408v-1.36a.97.97 0 111.942 0v1.36a8.361 8.361 0 01-7.379 8.295v2.773a.97.97 0 01-1.112.96.976.976 0 01-.142.011z" fill="#000"/>
</svg>
