<svg width="20" height="20" fill="none" xmlns="http://www.w3.org/2000/svg">
  <path fill-rule="evenodd" clip-rule="evenodd" d="M10 3c2.81 0 5.25 1.71 6.9 3.26.75.7 1.37 1.4 1.82 1.97l.17.2.46.6.28.41.37.56-.42.64-.15.2-.4.56-.14.17a20.5 20.5 0 01-1.99 2.17C15.25 15.29 12.81 17 10 17c-2.81 0-5.25-1.71-6.9-3.26-.75-.7-1.37-1.4-1.82-1.97l-.17-.2-.46-.6-.28-.41L0 10l.42-.64.15-.2.4-.56.14-.17c.47-.59 1.15-1.37 1.99-2.17l.4-.36C5.12 4.46 7.4 3 10 3zm3.44 3.09c.3.57.48 1.22.48 1.91 0 2.2-1.76 4-3.92 4a3.96 3.96 0 01-3.92-4c0-.7.17-1.34.48-1.91-.77.47-1.49 1.04-2.13 1.65A18.4 18.4 0 002.78 9.5l-.31.4-.07.09.24.3a18.5 18.5 0 001.79 1.96C5.97 13.71 7.94 15 10 15c2.06 0 4.03-1.29 5.57-2.74.67-.63 1.23-1.26 1.65-1.77l.31-.4.07-.09-.24-.3a18.5 18.5 0 00-1.79-1.96c-.64-.6-1.36-1.18-2.13-1.65zM9.02 7a.99.99 0 00-.98 1c0 .55.44 1 .98 1s.98-.45.98-1-.44-1-.98-1z" fill="#000"/>
</svg>
