<svg width="20" height="20" fill="none" xmlns="http://www.w3.org/2000/svg">
  <path d="M14 15a1 1 0 100-2 1 1 0 000 2zM15 10a1 1 0 11-2 0 1 1 0 012 0zM14 7a1 1 0 100-2 1 1 0 000 2z" fill="#000"/>
  <path fill-rule="evenodd" clip-rule="evenodd" d="M0 3a3 3 0 013-3h14a3 3 0 013 3v14a3 3 0 01-3 3H3a3 3 0 01-3-3V3zm10-1v1a1 1 0 110 2v2a1 1 0 110 2v2a1 1 0 110 2v2a1 1 0 110 2v1h3a1 1 0 112 0h2a1 1 0 001-1 1 1 0 110-2v-2a1 1 0 110-2V9a1 1 0 110-2V5a1 1 0 110-2 1 1 0 00-1-1h-2a1 1 0 11-2 0h-3z" fill="#000"/>
</svg>
