<svg width="20" height="18" viewBox="0 0 20 18" fill="none" xmlns="http://www.w3.org/2000/svg">
<path d="M20 3.19062C19.0759 1.87081 17.5388 1.82332 16.2187 2.74746L9.4313 7.5L6.6629 5.47132C7.58188 3.88468 7.14962 1.83152 5.61954 0.760266C4.00376 -0.37075 1.77755 0.0217505 0.646061 1.63722C-0.484915 3.25277 -0.0927274 5.47945 1.52309 6.61093C2.63184 7.38726 4.02844 7.44546 5.16094 6.88366L8.18391 9.00027L5.16122 11.1166C4.02872 10.5551 2.63219 10.6133 1.52337 11.3894C-0.0923758 12.5209 -0.484602 14.7473 0.646335 16.3628C1.77782 17.9785 4.00426 18.371 5.61977 17.24C7.14965 16.1688 7.58184 14.1156 6.66313 12.529L9.4313 10.5005L16.2184 15.2528C17.5385 16.1772 19.0758 16.1292 20 14.8094L11.7027 9.00023L20 3.19062ZM3.57919 5.54468C2.5568 5.54468 1.72794 4.71581 1.72794 3.69343C1.72794 2.67105 2.55684 1.84218 3.57919 1.84218C4.6018 1.84218 5.43044 2.67105 5.43044 3.69343C5.43044 4.71581 4.6018 5.54468 3.57919 5.54468ZM3.57919 16.1585C2.5568 16.1585 1.72794 15.3296 1.72794 14.3073C1.72794 13.2849 2.5568 12.456 3.57919 12.456C4.6018 12.456 5.43044 13.2849 5.43044 14.3073C5.43044 15.3296 4.6018 16.1585 3.57919 16.1585Z" fill="black"/>
</svg>
