<svg width="20" height="20" fill="none" xmlns="http://www.w3.org/2000/svg"><mask id="a" fill="#fff"><path fill-rule="evenodd" clip-rule="evenodd" d="M13.264 8.223c-.937.936-2.083 1.411-3.407 1.411-1.323 0-2.469-.475-3.405-1.411C5.515 7.286 5.04 6.14 5.04 4.817c0-1.324.475-2.47 1.412-3.406C7.388.475 8.534 0 9.857 0c1.324 0 2.47.475 3.406 1.411.937.937 1.412 2.083 1.412 3.406 0 1.324-.475 2.47-1.412 3.406zm4.86 5.892c.08.45.135.874.162 1.264.027.38.04.778.04 1.181 0 1.045-.331 1.89-.986 2.513-.646.615-1.501.927-2.541.927h-9.63c-1.04 0-1.896-.312-2.542-.927-.654-.623-.986-1.468-.986-2.512 0-.402.013-.799.04-1.182.027-.39.081-.816.162-1.264.08-.452.185-.88.31-1.27.13-.404.305-.803.523-1.185.225-.397.49-.742.787-1.027a3.47 3.47 0 011.132-.71 3.905 3.905 0 011.444-.262c.204 0 .402.084.782.332.239.155.513.332.817.526.261.167.616.323 1.054.465.428.138.863.208 1.291.208.429 0 .863-.07 1.29-.208.44-.142.794-.298 1.056-.465.306-.196.581-.373.816-.526.381-.248.578-.332.783-.332.52 0 1.005.088 1.444.261.44.175.82.414 1.131.711.298.285.563.63.788 1.027.217.382.393.78.522 1.185.126.39.23.818.311 1.27z"/></mask><path d="M13.264 8.223l-1.415-1.414 1.415 1.414zm-6.812 0L5.038 9.637l1.414-1.414zm6.811-6.812l1.415-1.414-1.415 1.414zm5.023 13.968l-1.995.138v.002l1.995-.14zm-.162-1.264l1.969-.352v-.001l-1.969.353zm.203 2.445h2-2zm-.987 2.513l-1.378-1.449 1.378 1.449zm-14.713 0l-1.38 1.448h.001l1.379-1.448zm-.946-3.694l1.995.139-1.995-.139zm.162-1.264l-1.969-.353 1.969.353zm.31-1.27l-1.904-.61 1.904.61zm.523-1.185l1.739.988-1.74-.988zm.787-1.027L2.08 9.188l1.383 1.445zm1.132-.71l.736 1.859-.736-1.86zm2.226.07L5.73 11.668l1.092-1.675zm.817.526L6.56 12.204l.001.001 1.076-1.686zm1.054.465l.615-1.903-.615 1.903zm2.582 0l-.615-1.903.615 1.903zm1.055-.465l1.075 1.687.002-.002-1.077-1.685zm.816-.526l-1.091-1.676h-.002l1.093 1.676zm2.227-.07l.737-1.86h-.001l-.736 1.86zm1.131.71l-1.382 1.445 1.382-1.445zm.788 1.027l-1.739.988 1.74-.988zm.522 1.185l-1.904.61 1.904-.61zm-7.956-1.21c1.855 0 3.51-.687 4.82-1.998L11.85 6.809c-.561.561-1.199.825-1.992.825v4zm-4.82-1.998c1.312 1.311 2.966 1.997 4.82 1.997v-4c-.792 0-1.43-.264-1.991-.826l-2.828 2.83zM3.04 4.817c0 1.854.686 3.509 1.998 4.82L7.866 6.81c-.562-.562-.826-1.2-.826-1.992h-4zm1.997-4.82C3.727 1.308 3.04 2.963 3.04 4.817h4c0-.793.264-1.43.826-1.992L5.037-.003zM9.857-2c-1.854 0-3.508.686-4.82 1.997l2.829 2.828C8.427 2.264 9.064 2 9.857 2v-4zm4.82 1.997C13.366-1.314 11.712-2 9.857-2v4c.793 0 1.43.264 1.992.825l2.828-2.828zm1.998 4.82c0-1.854-.686-3.509-1.997-4.82l-2.829 2.828c.562.562.826 1.2.826 1.992h4zm-1.997 4.82c1.311-1.311 1.997-2.966 1.997-4.82h-4c0 .793-.264 1.43-.826 1.992l2.829 2.828zm5.604 5.604c-.033-.473-.098-.97-.19-1.478l-3.936.705c.07.39.114.743.135 1.05l3.99-.277zm.045 1.319c0-.447-.016-.891-.046-1.32l-3.99.279c.023.332.036.683.036 1.042l4-.002zm-1.608 3.962c1.114-1.06 1.608-2.463 1.608-3.962h-4c0 .59-.17.879-.365 1.064l2.757 2.898zM14.799 22c1.462 0 2.84-.451 3.92-1.478l-2.758-2.898c-.213.203-.545.376-1.162.376v4zm-9.63 0h9.63v-4h-9.63v4zm-3.92-1.478C2.326 21.549 3.705 22 5.168 22v-4c-.618 0-.95-.173-1.163-.376l-2.758 2.898zM-.36 16.56c0 1.498.494 2.9 1.607 3.96l2.758-2.896c-.195-.187-.365-.475-.365-1.064h-4zm.044-1.32c-.03.43-.044.874-.044 1.32h4c0-.358.012-.709.035-1.043l-3.99-.277zm.19-1.479a13.85 13.85 0 00-.19 1.48l3.99.275c.022-.307.066-.66.136-1.049l-3.937-.706zm.373-1.526c-.154.483-.279.997-.374 1.526l3.937.707c.068-.376.152-.717.247-1.015l-3.81-1.218zm.689-1.564a8.288 8.288 0 00-.688 1.563l3.81 1.22c.085-.268.204-.54.356-.807L.937 10.672zM2.08 9.189a6.47 6.47 0 00-1.143 1.483l3.478 1.975a2.48 2.48 0 01.431-.569L2.08 9.188zm1.778-1.126A5.467 5.467 0 002.08 9.188l2.766 2.89c.106-.102.261-.207.485-.296l-1.473-3.72zm2.18-.402c-.745 0-1.484.126-2.18.402l1.473 3.719c.181-.072.414-.121.708-.121v-4zm1.876.656c-.395-.257-1.03-.656-1.875-.656v4a1.29 1.29 0 01-.456-.086c-.029-.012-.033-.016-.004 0s.076.045.15.093l2.185-3.35zm.8.517c-.3-.192-.569-.366-.8-.517L5.73 11.668c.244.16.524.34.83.536l2.155-3.37zm.593.247c-.346-.112-.527-.206-.594-.248l-2.15 3.372c.456.291.985.51 1.515.682L9.307 9.08zm.676.111c-.21 0-.436-.034-.676-.111l-1.23 3.806c.617.2 1.258.305 1.906.305v-4zm.675-.111a2.193 2.193 0 01-.675.111v4c.648 0 1.29-.106 1.906-.305L10.66 9.08zm.596-.249c-.067.043-.249.137-.595.249l1.23 3.806c.53-.171 1.058-.39 1.515-.681l-2.15-3.374zm.798-.514c-.228.149-.497.322-.8.515l2.154 3.371c.31-.198.59-.379.831-.536l-2.185-3.35zm1.876-.657c-.845 0-1.48.4-1.875.656l2.183 3.352c.074-.048.122-.077.15-.093.03-.017.026-.013-.002 0a1.293 1.293 0 01-.456.086V7.66zm2.18.402a5.909 5.909 0 00-2.18-.402v4c.294 0 .527.05.708.121l1.472-3.72zm1.778 1.125a5.47 5.47 0 00-1.777-1.125l-1.474 3.719c.224.088.38.194.486.296l2.765-2.89zm1.144 1.483a6.469 6.469 0 00-1.144-1.483l-2.765 2.89c.142.136.291.323.431.57l3.478-1.977zm.688 1.564a8.275 8.275 0 00-.688-1.564l-3.478 1.977c.152.266.27.539.357.806l3.81-1.219zm.375 1.527a11.968 11.968 0 00-.375-1.527l-3.81 1.22c.096.297.18.638.248 1.014l3.937-.707z" fill="#000" mask="url(#a)"/></svg>